<svg id="svg" version="1.1" xmlns="http://www.w3.org/2000/svg" xmlns:xlink="http://www.w3.org/1999/xlink" width="400" height="324.52830188679246" viewBox="0, 0, 400,324.52830188679246"><g id="svgg"><path id="path0" d="M194.775 46.651 C 164.546 48.434,137.369 67.766,125.605 95.854 C 114.687 121.920,118.406 149.950,135.683 171.811 C 137.762 174.443,146.555 183.224,144.821 180.938 C 131.253 163.046,126.232 142.890,130.335 122.787 C 136.555 92.311,161.881 70.388,192.550 68.934 C 212.028 68.011,225.902 71.233,238.648 79.641 C 271.580 101.366,278.787 146.444,254.535 179.017 C 252.488 181.767,253.210 181.256,257.681 176.788 C 283.439 151.050,285.459 109.092,262.410 78.569 C 246.467 57.456,220.370 45.141,194.775 46.651 M193.033 92.191 C 175.977 97.874,165.420 106.635,161.995 117.949 C 159.143 127.368,160.899 139.002,166.748 149.449 C 170.720 156.544,182.859 168.573,194.564 177.014 C 201.719 182.174,206.139 188.145,208.858 196.325 C 210.698 201.861,211.892 208.869,211.899 214.175 L 211.901 215.578 220.685 215.578 L 229.469 215.578 229.581 215.134 C 230.210 212.627,230.063 204.691,229.309 200.457 C 227.715 191.508,222.758 181.991,218.091 178.922 C 205.774 170.821,182.999 152.511,179.697 148.055 C 163.306 125.934,168.631 105.333,194.089 92.374 C 195.415 91.699,196.417 91.150,196.315 91.153 C 196.213 91.157,194.736 91.624,193.033 92.191 M185.866 219.326 C 181.494 221.361,181.886 228.003,186.456 229.328 C 188.159 229.822,231.011 229.739,232.306 229.239 C 236.672 227.556,236.949 221.455,232.755 219.365 L 231.758 218.868 209.299 218.870 L 186.841 218.872 185.866 219.326 M191.030 234.184 C 187.071 235.324,187.422 241.539,191.500 242.485 C 192.841 242.796,226.193 242.719,227.245 242.402 C 231.053 241.256,231.470 236.094,227.889 234.427 L 226.899 233.966 209.289 233.982 C 198.601 233.991,191.424 234.071,191.030 234.184 M196.269 246.476 C 194.252 247.469,194.160 250.218,196.096 251.651 C 196.949 252.283,221.624 252.289,222.470 251.657 C 224.370 250.239,224.316 247.925,222.353 246.589 L 221.713 246.154 209.309 246.158 C 198.278 246.162,196.833 246.197,196.269 246.476 M260.352 264.445 C 260.414 264.607,264.709 270.855,269.897 278.330 C 275.085 285.805,279.329 292.095,279.330 292.308 C 279.330 292.521,274.990 298.950,269.686 306.596 C 264.382 314.241,259.999 320.663,259.945 320.868 C 259.851 321.227,260.030 321.239,265.827 321.239 L 271.806 321.239 279.036 310.595 C 283.013 304.741,286.335 299.952,286.418 299.952 C 286.502 299.952,289.820 304.740,293.793 310.593 L 301.016 321.235 307.084 321.237 C 311.860 321.238,313.132 321.187,313.059 320.997 C 313.008 320.864,308.543 314.400,303.137 306.633 C 297.731 298.865,293.308 292.421,293.308 292.312 C 293.309 292.203,297.634 285.899,302.920 278.302 C 308.205 270.705,312.530 264.413,312.530 264.320 C 312.530 264.227,309.845 264.151,306.562 264.151 L 300.594 264.151 293.566 274.698 C 289.700 280.498,286.486 285.243,286.423 285.241 C 286.360 285.240,283.133 280.494,279.253 274.695 L 272.197 264.151 266.218 264.151 C 260.948 264.151,260.253 264.186,260.352 264.445 M204.022 282.583 C 204.090 298.733,204.137 301.011,204.426 302.467 C 206.977 315.284,215.714 322.272,229.221 322.296 C 241.077 322.317,249.175 317.084,252.420 307.305 C 254.009 302.515,254.084 301.335,254.086 281.132 L 254.088 264.344 248.776 264.344 L 243.463 264.344 243.393 282.293 C 243.311 303.122,243.330 302.932,240.990 306.784 C 236.156 314.741,222.204 314.670,217.165 306.662 C 214.715 302.768,214.742 303.041,214.662 282.196 L 214.594 264.344 209.270 264.344 L 203.946 264.344 204.022 282.583 " stroke="none" fill="#64646c" fill-rule="evenodd"></path><path id="path1" d="M200.242 2.072 C 200.481 2.118,200.873 2.118,201.113 2.072 C 201.352 2.026,201.156 1.988,200.677 1.988 C 200.198 1.988,200.002 2.026,200.242 2.072 M205.207 14.901 C 205.207 16.657,205.236 17.375,205.272 16.497 C 205.308 15.619,205.308 14.182,205.272 13.304 C 205.236 12.426,205.207 13.145,205.207 14.901 M195.918 15.288 C 195.918 17.044,195.947 17.762,195.983 16.884 C 196.019 16.006,196.019 14.569,195.983 13.691 C 195.947 12.813,195.918 13.532,195.918 15.288 M142.042 18.251 C 142.042 18.284,142.325 18.567,142.671 18.880 L 143.299 19.448 142.731 18.820 C 142.201 18.233,142.042 18.102,142.042 18.251 M134.746 22.061 C 134.746 22.646,134.782 22.886,134.827 22.593 C 134.871 22.300,134.871 21.821,134.827 21.529 C 134.782 21.236,134.746 21.476,134.746 22.061 M204.980 24.770 C 204.980 25.143,205.019 25.295,205.068 25.109 C 205.117 24.923,205.117 24.618,205.068 24.432 C 205.019 24.245,204.980 24.398,204.980 24.770 M152.544 37.542 C 152.544 38.021,152.582 38.217,152.628 37.978 C 152.674 37.738,152.674 37.346,152.628 37.107 C 152.582 36.867,152.544 37.063,152.544 37.542 M195.601 46.584 C 195.949 46.627,196.471 46.627,196.762 46.582 C 197.053 46.538,196.768 46.503,196.130 46.504 C 195.491 46.505,195.253 46.541,195.601 46.584 M201.213 46.584 C 201.561 46.627,202.083 46.627,202.374 46.582 C 202.665 46.538,202.380 46.503,201.742 46.504 C 201.103 46.505,200.865 46.541,201.213 46.584 M204.983 46.771 C 205.169 46.820,205.474 46.820,205.660 46.771 C 205.847 46.722,205.694 46.683,205.322 46.683 C 204.949 46.683,204.797 46.722,204.983 46.771 M93.616 61.482 C 93.857 61.528,94.205 61.526,94.390 61.478 C 94.575 61.429,94.378 61.392,93.953 61.394 C 93.527 61.396,93.375 61.436,93.616 61.482 M252.346 67.405 C 252.346 67.438,252.629 67.721,252.975 68.033 L 253.604 68.602 253.036 67.973 C 252.506 67.387,252.346 67.255,252.346 67.405 M142.716 70.102 L 140.590 72.279 142.767 70.153 C 144.789 68.179,145.032 67.925,144.893 67.925 C 144.864 67.925,143.885 68.904,142.716 70.102 M195.210 68.835 C 195.450 68.881,195.842 68.881,196.081 68.835 C 196.321 68.789,196.125 68.751,195.646 68.751 C 195.167 68.751,194.971 68.789,195.210 68.835 M201.984 68.835 C 202.223 68.881,202.615 68.881,202.854 68.835 C 203.094 68.789,202.898 68.751,202.419 68.751 C 201.940 68.751,201.744 68.789,201.984 68.835 M191.437 69.031 C 191.730 69.075,192.209 69.075,192.501 69.031 C 192.794 68.986,192.554 68.950,191.969 68.950 C 191.384 68.950,191.144 68.986,191.437 69.031 M205.564 69.031 C 205.856 69.075,206.335 69.075,206.628 69.031 C 206.921 68.986,206.681 68.950,206.096 68.950 C 205.510 68.950,205.271 68.986,205.564 69.031 M257.378 72.472 C 257.739 72.845,258.078 73.149,258.131 73.149 C 258.184 73.149,257.932 72.845,257.571 72.472 C 257.210 72.100,256.871 71.795,256.818 71.795 C 256.765 71.795,257.017 72.100,257.378 72.472 M247.025 86.309 C 247.440 86.734,247.824 87.083,247.877 87.083 C 247.931 87.083,247.634 86.734,247.218 86.309 C 246.802 85.883,246.419 85.535,246.366 85.535 C 246.312 85.535,246.609 85.883,247.025 86.309 M148.815 88.147 C 148.022 88.945,147.417 89.598,147.470 89.598 C 147.523 89.598,148.215 88.945,149.008 88.147 C 149.801 87.349,150.406 86.696,150.353 86.696 C 150.300 86.696,149.608 87.349,148.815 88.147 M250.403 89.647 C 251.205 90.501,251.379 90.655,251.379 90.510 C 251.379 90.479,250.965 90.065,250.460 89.590 L 249.540 88.728 250.403 89.647 M179.967 102.516 L 178.326 104.209 180.019 102.568 C 181.592 101.045,181.801 100.822,181.660 100.822 C 181.631 100.822,180.869 101.584,179.967 102.516 M170.767 104.161 L 170.198 104.790 170.827 104.221 C 171.173 103.909,171.456 103.626,171.456 103.592 C 171.456 103.443,171.297 103.574,170.767 104.161 M203.241 109.863 C 203.534 109.907,204.013 109.907,204.306 109.863 C 204.598 109.819,204.359 109.782,203.774 109.782 C 203.188 109.782,202.949 109.819,203.241 109.863 M119.639 118.433 C 119.639 118.805,119.678 118.957,119.727 118.771 C 119.776 118.585,119.776 118.280,119.727 118.094 C 119.678 117.908,119.639 118.060,119.639 118.433 M278.326 120.077 C 278.329 120.503,278.368 120.655,278.415 120.414 C 278.461 120.173,278.459 119.825,278.411 119.640 C 278.362 119.455,278.324 119.652,278.326 120.077 M119.449 121.045 C 119.451 121.471,119.491 121.622,119.537 121.381 C 119.583 121.141,119.581 120.792,119.533 120.607 C 119.485 120.422,119.447 120.619,119.449 121.045 M193.369 121.916 C 193.369 122.288,193.408 122.441,193.457 122.254 C 193.506 122.068,193.506 121.763,193.457 121.577 C 193.408 121.391,193.369 121.543,193.369 121.916 M155.549 121.674 C 155.515 121.754,155.538 122.385,155.601 123.077 L 155.715 124.335 155.748 122.932 C 155.778 121.658,155.718 121.276,155.549 121.674 M278.531 123.174 C 278.532 123.812,278.568 124.050,278.611 123.702 C 278.655 123.355,278.654 122.832,278.609 122.541 C 278.565 122.250,278.530 122.535,278.531 123.174 M170.154 123.851 C 170.154 124.330,170.192 124.526,170.238 124.286 C 170.284 124.047,170.284 123.655,170.238 123.416 C 170.192 123.176,170.154 123.372,170.154 123.851 M119.282 125.980 C 119.282 127.417,119.313 128.004,119.350 127.286 C 119.387 126.567,119.387 125.392,119.350 124.673 C 119.313 123.955,119.282 124.543,119.282 125.980 M160.496 127.431 C 160.497 128.495,160.529 128.906,160.569 128.344 C 160.608 127.781,160.607 126.911,160.568 126.409 C 160.528 125.907,160.496 126.367,160.496 127.431 M278.531 128.786 C 278.532 129.424,278.568 129.662,278.611 129.314 C 278.655 128.967,278.654 128.444,278.609 128.153 C 278.565 127.862,278.530 128.147,278.531 128.786 M231.504 130.188 C 232.333 130.224,233.640 130.224,234.407 130.187 C 235.173 130.150,234.494 130.121,232.898 130.121 C 231.301 130.121,230.674 130.151,231.504 130.188 M119.445 130.818 C 119.445 131.190,119.485 131.343,119.533 131.156 C 119.582 130.970,119.582 130.665,119.533 130.479 C 119.485 130.293,119.445 130.445,119.445 130.818 M268.647 131.011 C 268.647 131.384,268.687 131.536,268.735 131.350 C 268.784 131.164,268.784 130.859,268.735 130.672 C 268.687 130.486,268.647 130.639,268.647 131.011 M202.854 130.757 C 203.041 130.806,203.345 130.806,203.532 130.757 C 203.718 130.709,203.566 130.669,203.193 130.669 C 202.821 130.669,202.668 130.709,202.854 130.757 M204.596 130.757 C 204.782 130.806,205.087 130.806,205.273 130.757 C 205.460 130.709,205.307 130.669,204.935 130.669 C 204.562 130.669,204.410 130.709,204.596 130.757 M129.129 131.979 C 129.129 132.458,129.166 132.654,129.213 132.414 C 129.259 132.175,129.259 131.783,129.213 131.543 C 129.166 131.304,129.129 131.500,129.129 131.979 M268.874 136.430 C 268.874 138.186,268.903 138.904,268.939 138.026 C 268.975 137.148,268.975 135.711,268.939 134.833 C 268.903 133.955,268.874 134.673,268.874 136.430 M152.536 137.397 C 152.536 137.770,152.576 137.922,152.625 137.736 C 152.674 137.550,152.674 137.245,152.625 137.059 C 152.576 136.872,152.536 137.025,152.536 137.397 M152.351 139.913 C 152.351 140.392,152.388 140.588,152.435 140.348 C 152.481 140.109,152.481 139.717,152.435 139.478 C 152.388 139.238,152.351 139.434,152.351 139.913 M129.129 140.881 C 129.129 141.359,129.166 141.555,129.213 141.316 C 129.259 141.076,129.259 140.685,129.213 140.445 C 129.166 140.206,129.129 140.402,129.129 140.881 M268.651 141.945 C 268.653 142.371,268.692 142.522,268.739 142.281 C 268.785 142.041,268.783 141.692,268.735 141.507 C 268.686 141.322,268.648 141.519,268.651 141.945 M231.205 143.535 C 230.912 143.579,230.672 143.703,230.672 143.809 C 230.672 144.021,231.427 143.848,231.727 143.568 C 231.828 143.474,231.872 143.409,231.824 143.425 C 231.776 143.441,231.497 143.490,231.205 143.535 M192.352 149.347 L 190.518 151.234 192.404 149.399 C 194.157 147.695,194.379 147.460,194.239 147.460 C 194.210 147.460,193.361 148.309,192.352 149.347 M152.347 148.718 C 152.349 149.144,152.389 149.295,152.435 149.054 C 152.481 148.814,152.479 148.465,152.431 148.280 C 152.383 148.095,152.345 148.292,152.347 148.718 M245.950 152.830 L 245.283 153.556 246.009 152.889 C 246.408 152.522,246.734 152.196,246.734 152.163 C 246.734 152.016,246.571 152.155,245.950 152.830 M242.273 156.507 L 241.606 157.233 242.332 156.566 C 243.007 155.945,243.147 155.781,242.999 155.781 C 242.966 155.781,242.640 156.108,242.273 156.507 M176.004 161.200 C 176.636 161.838,177.196 162.361,177.250 162.361 C 177.303 162.361,176.829 161.838,176.197 161.200 C 175.565 160.561,175.005 160.039,174.952 160.039 C 174.898 160.039,175.372 160.561,176.004 161.200 M179.681 164.877 C 180.313 165.515,180.873 166.038,180.926 166.038 C 180.980 166.038,180.506 165.515,179.874 164.877 C 179.242 164.238,178.682 163.716,178.628 163.716 C 178.575 163.716,179.049 164.238,179.681 164.877 M173.391 165.747 C 174.398 166.759,175.266 167.586,175.319 167.586 C 175.372 167.586,174.592 166.759,173.585 165.747 C 172.578 164.736,171.711 163.909,171.657 163.909 C 171.604 163.909,172.384 164.736,173.391 165.747 M140.106 176.971 C 141.113 177.983,141.981 178.810,142.034 178.810 C 142.087 178.810,141.307 177.983,140.300 176.971 C 139.293 175.960,138.426 175.133,138.372 175.133 C 138.319 175.133,139.100 175.960,140.106 176.971 M199.806 181.519 C 200.546 182.264,201.194 182.874,201.247 182.874 C 201.301 182.874,200.739 182.264,200.000 181.519 C 199.261 180.774,198.612 180.164,198.559 180.164 C 198.506 180.164,199.067 180.774,199.806 181.519 M144.337 180.803 C 144.482 180.981,144.671 181.085,144.756 181.032 C 144.842 180.979,144.956 181.026,145.010 181.136 C 145.064 181.245,145.086 181.224,145.059 181.089 C 145.031 180.953,144.929 180.840,144.831 180.839 C 144.734 180.837,144.523 180.755,144.364 180.657 C 144.114 180.502,144.110 180.522,144.337 180.803 M180.552 191.679 C 181.237 192.371,181.842 192.937,181.895 192.937 C 181.948 192.937,181.431 192.371,180.745 191.679 C 180.059 190.987,179.455 190.421,179.402 190.421 C 179.348 190.421,179.866 190.987,180.552 191.679 M229.956 206.096 C 229.956 206.681,229.993 206.921,230.037 206.628 C 230.081 206.335,230.081 205.856,230.037 205.564 C 229.993 205.271,229.956 205.510,229.956 206.096 M207.913 210.063 C 207.913 211.447,207.944 211.987,207.981 211.264 C 208.018 210.541,208.018 209.409,207.981 208.749 C 207.943 208.088,207.912 208.679,207.913 210.063 M229.958 211.030 C 229.959 211.669,229.996 211.907,230.039 211.559 C 230.082 211.211,230.081 210.689,230.037 210.398 C 229.993 210.107,229.957 210.392,229.958 211.030 M188.724 210.740 C 188.724 211.113,188.764 211.265,188.813 211.079 C 188.861 210.893,188.861 210.588,188.813 210.402 C 188.764 210.215,188.724 210.368,188.724 210.740 M211.768 213.159 C 211.769 213.798,211.805 214.036,211.848 213.688 C 211.891 213.340,211.890 212.818,211.846 212.527 C 211.802 212.236,211.767 212.521,211.768 213.159 M198.098 218.820 C 204.183 218.848,214.198 218.848,220.353 218.820 C 226.508 218.791,221.529 218.768,209.289 218.768 C 197.049 218.768,192.013 218.791,198.098 218.820 M203.255 246.105 C 206.642 246.135,212.129 246.135,215.447 246.105 C 218.765 246.076,215.994 246.051,209.289 246.051 C 202.583 246.051,199.868 246.076,203.255 246.105 M194.534 249.153 C 194.536 249.579,194.575 249.730,194.622 249.490 C 194.668 249.249,194.666 248.901,194.618 248.716 C 194.569 248.531,194.531 248.728,194.534 249.153 M28.981 263.127 C 29.222 263.173,29.571 263.171,29.756 263.123 C 29.941 263.074,29.744 263.036,29.318 263.039 C 28.892 263.041,28.741 263.080,28.981 263.127 M34.301 263.123 C 34.487 263.172,34.792 263.172,34.978 263.123 C 35.164 263.075,35.012 263.035,34.640 263.035 C 34.267 263.035,34.115 263.075,34.301 263.123 M262.313 264.095 C 267.657 264.231,272.428 264.235,272.346 264.103 C 272.296 264.023,269.540 263.976,266.220 263.999 C 262.900 264.022,261.142 264.065,262.313 264.095 M300.465 264.103 C 300.416 264.182,302.174 264.225,304.372 264.198 C 311.900 264.105,312.624 264.040,306.591 263.999 C 303.271 263.976,300.515 264.023,300.465 264.103 M184.615 274.999 C 184.615 283.627,184.566 285.818,184.373 285.702 C 184.235 285.619,184.255 285.709,184.422 285.914 C 184.681 286.233,184.718 285.088,184.762 275.311 L 184.812 264.351 189.794 264.296 L 194.775 264.241 189.695 264.196 L 184.615 264.151 184.615 274.999 M209.239 264.296 L 214.608 264.351 214.659 281.522 L 214.709 298.694 214.757 281.422 L 214.804 264.151 209.337 264.196 L 203.870 264.241 209.239 264.296 M243.298 281.422 L 243.346 298.694 243.396 281.522 L 243.447 264.351 248.816 264.296 L 254.185 264.241 248.718 264.196 L 243.251 264.151 243.298 281.422 M337.362 269.763 C 337.362 270.455,337.397 270.738,337.440 270.392 C 337.483 270.046,337.483 269.480,337.440 269.134 C 337.397 268.788,337.362 269.071,337.362 269.763 M10.250 271.263 L 9.192 272.375 10.305 271.318 C 11.339 270.335,11.506 270.150,11.363 270.150 C 11.332 270.150,10.832 270.651,10.250 271.263 M51.953 272.908 L 50.798 274.117 52.008 272.962 C 52.673 272.327,53.217 271.782,53.217 271.753 C 53.217 271.610,53.026 271.784,51.953 272.908 M31.210 273.389 C 31.719 273.429,32.503 273.428,32.952 273.388 C 33.401 273.347,32.985 273.314,32.027 273.315 C 31.069 273.316,30.702 273.349,31.210 273.389 M342.961 275.702 C 343.147 275.751,343.452 275.751,343.638 275.702 C 343.824 275.653,343.672 275.613,343.299 275.613 C 342.927 275.613,342.775 275.653,342.961 275.702 M47.018 277.649 L 45.960 278.761 47.073 277.704 C 47.685 277.122,48.186 276.621,48.186 276.591 C 48.186 276.447,48.001 276.615,47.018 277.649 M18.088 278.713 L 16.933 279.923 18.142 278.768 C 19.266 277.695,19.440 277.504,19.297 277.504 C 19.267 277.504,18.723 278.048,18.088 278.713 M168.795 280.153 C 168.982 280.201,169.286 280.201,169.473 280.153 C 169.659 280.104,169.507 280.064,169.134 280.064 C 168.761 280.064,168.609 280.104,168.795 280.153 M74.552 280.346 C 74.739 280.395,75.044 280.395,75.230 280.346 C 75.416 280.298,75.264 280.258,74.891 280.258 C 74.519 280.258,74.366 280.298,74.552 280.346 M79.003 280.346 C 79.190 280.395,79.494 280.395,79.681 280.346 C 79.867 280.298,79.715 280.258,79.342 280.258 C 78.970 280.258,78.817 280.298,79.003 280.346 M374.504 280.346 C 374.690 280.395,374.995 280.395,375.181 280.346 C 375.368 280.298,375.215 280.258,374.843 280.258 C 374.470 280.258,374.318 280.298,374.504 280.346 M378.955 280.346 C 379.141 280.395,379.446 280.395,379.632 280.346 C 379.819 280.298,379.666 280.258,379.294 280.258 C 378.921 280.258,378.769 280.298,378.955 280.346 M343.153 280.938 L 348.136 280.993 348.186 301.164 L 348.236 321.335 348.283 301.064 L 348.331 280.793 343.251 280.838 L 338.171 280.883 343.153 280.938 M183.261 284.567 C 183.622 284.940,183.961 285.244,184.014 285.244 C 184.067 285.244,183.815 284.940,183.454 284.567 C 183.093 284.194,182.754 283.890,182.701 283.890 C 182.648 283.890,182.900 284.194,183.261 284.567 M139.042 285.051 C 139.566 285.583,140.039 286.018,140.092 286.018 C 140.145 286.018,139.760 285.583,139.236 285.051 C 138.711 284.519,138.239 284.083,138.186 284.083 C 138.133 284.083,138.518 284.519,139.042 285.051 M156.555 285.535 C 156.085 286.014,155.744 286.405,155.798 286.405 C 155.851 286.405,156.279 286.014,156.749 285.535 C 157.219 285.056,157.560 284.664,157.507 284.664 C 157.454 284.664,157.025 285.056,156.555 285.535 M361.967 286.067 L 361.006 287.083 362.022 286.122 C 362.581 285.594,363.038 285.137,363.038 285.106 C 363.038 284.962,362.859 285.123,361.967 286.067 M392.066 286.115 C 392.644 286.701,393.160 287.179,393.214 287.179 C 393.267 287.179,392.837 286.701,392.259 286.115 C 391.681 285.530,391.165 285.051,391.111 285.051 C 391.058 285.051,391.488 285.530,392.066 286.115 M114.848 285.636 C 114.578 285.935,114.457 285.969,114.337 285.781 C 114.223 285.601,114.180 285.626,114.178 285.873 C 114.174 286.342,114.415 286.297,114.949 285.728 C 115.199 285.462,115.358 285.244,115.303 285.244 C 115.248 285.244,115.043 285.421,114.848 285.636 M171.795 289.448 C 172.141 289.491,172.707 289.491,173.053 289.448 C 173.399 289.405,173.116 289.370,172.424 289.370 C 171.732 289.370,171.449 289.405,171.795 289.448 M1.984 290.373 C 1.986 290.798,2.026 290.950,2.072 290.709 C 2.118 290.468,2.117 290.120,2.068 289.935 C 2.020 289.750,1.982 289.947,1.984 290.373 M12.624 290.856 C 12.624 291.229,12.663 291.381,12.712 291.195 C 12.761 291.009,12.761 290.704,12.712 290.518 C 12.663 290.331,12.624 290.484,12.624 290.856 M84.470 292.404 C 84.886 292.830,85.270 293.179,85.323 293.179 C 85.376 293.179,85.079 292.830,84.664 292.404 C 84.248 291.979,83.864 291.630,83.811 291.630 C 83.758 291.630,84.055 291.979,84.470 292.404 M1.988 295.501 C 1.988 295.980,2.026 296.176,2.072 295.936 C 2.118 295.697,2.118 295.305,2.072 295.065 C 2.026 294.826,1.988 295.022,1.988 295.501 M144.422 298.403 C 144.422 298.989,144.458 299.228,144.502 298.936 C 144.547 298.643,144.547 298.164,144.502 297.871 C 144.458 297.579,144.422 297.818,144.422 298.403 M56.358 298.984 C 56.358 299.357,56.398 299.509,56.447 299.323 C 56.496 299.136,56.496 298.832,56.447 298.645 C 56.398 298.459,56.358 298.612,56.358 298.984 M397.916 298.984 C 397.916 299.357,397.956 299.509,398.005 299.323 C 398.053 299.136,398.053 298.832,398.005 298.645 C 397.956 298.459,397.916 298.612,397.916 298.984 M204.016 299.468 C 204.018 299.894,204.058 300.045,204.104 299.804 C 204.150 299.564,204.148 299.215,204.100 299.030 C 204.052 298.845,204.014 299.042,204.016 299.468 M253.943 299.661 C 253.945 300.087,253.985 300.238,254.031 299.998 C 254.078 299.757,254.076 299.409,254.027 299.224 C 253.979 299.039,253.941 299.236,253.943 299.661 M114.653 310.305 C 114.653 316.372,114.677 318.825,114.707 315.758 C 114.737 312.690,114.737 307.727,114.707 304.727 C 114.677 301.728,114.653 304.238,114.653 310.305 M151.007 301.016 C 151.008 301.761,151.043 302.042,151.085 301.641 C 151.127 301.239,151.126 300.629,151.083 300.286 C 151.040 299.942,151.006 300.271,151.007 301.016 M98.177 301.209 C 98.178 301.955,98.213 302.236,98.254 301.834 C 98.296 301.433,98.296 300.823,98.253 300.479 C 98.210 300.136,98.176 300.464,98.177 301.209 M161.068 301.113 C 161.068 301.805,161.103 302.088,161.146 301.742 C 161.189 301.396,161.189 300.830,161.146 300.484 C 161.103 300.138,161.068 300.421,161.068 301.113 M356.135 301.209 C 356.136 301.955,356.171 302.236,356.213 301.834 C 356.255 301.433,356.254 300.823,356.211 300.479 C 356.169 300.136,356.134 300.464,356.135 301.209 M366.196 301.113 C 366.196 301.805,366.232 302.088,366.274 301.742 C 366.317 301.396,366.317 300.830,366.274 300.484 C 366.232 300.138,366.196 300.421,366.196 301.113 M88.108 301.113 C 88.108 301.698,88.145 301.938,88.189 301.645 C 88.233 301.352,88.233 300.873,88.189 300.581 C 88.145 300.288,88.108 300.527,88.108 301.113 M56.358 303.435 C 56.358 303.807,56.398 303.960,56.447 303.774 C 56.496 303.587,56.496 303.283,56.447 303.096 C 56.398 302.910,56.358 303.062,56.358 303.435 M397.916 303.435 C 397.916 303.807,397.956 303.960,398.005 303.774 C 398.053 303.587,398.053 303.283,398.005 303.096 C 397.956 302.910,397.916 303.062,397.916 303.435 M17.900 307.112 C 18.316 307.537,18.700 307.886,18.753 307.886 C 18.806 307.886,18.510 307.537,18.094 307.112 C 17.678 306.686,17.294 306.338,17.241 306.338 C 17.188 306.338,17.485 306.686,17.900 307.112 M218.771 308.660 C 219.187 309.086,219.571 309.434,219.624 309.434 C 219.677 309.434,219.380 309.086,218.965 308.660 C 218.549 308.234,218.165 307.886,218.112 307.886 C 218.059 307.886,218.355 308.234,218.771 308.660 M180.636 309.482 L 180.068 310.111 180.697 309.543 C 181.283 309.013,181.415 308.853,181.265 308.853 C 181.232 308.853,180.949 309.136,180.636 309.482 M384.519 309.918 C 384.049 310.397,383.708 310.789,383.761 310.789 C 383.814 310.789,384.242 310.397,384.712 309.918 C 385.182 309.439,385.523 309.047,385.470 309.047 C 385.417 309.047,384.989 309.439,384.519 309.918 M52.346 312.530 C 53.086 313.275,53.734 313.885,53.787 313.885 C 53.841 313.885,53.279 313.275,52.540 312.530 C 51.801 311.785,51.152 311.176,51.099 311.176 C 51.046 311.176,51.607 311.785,52.346 312.530 M29.657 312.277 C 29.843 312.325,30.148 312.325,30.334 312.277 C 30.520 312.228,30.368 312.188,29.995 312.188 C 29.623 312.188,29.470 312.228,29.657 312.277 M33.527 312.277 C 33.713 312.325,34.018 312.325,34.204 312.277 C 34.390 312.228,34.238 312.188,33.866 312.188 C 33.493 312.188,33.341 312.228,33.527 312.277 M228.685 312.670 C 229.028 312.713,229.638 312.713,230.039 312.671 C 230.441 312.630,230.160 312.595,229.415 312.594 C 228.670 312.593,228.341 312.627,228.685 312.670 M171.892 312.862 C 172.184 312.907,172.663 312.907,172.956 312.862 C 173.249 312.818,173.009 312.782,172.424 312.782 C 171.838 312.782,171.599 312.818,171.892 312.862 M323.899 321.956 C 324.139 322.002,324.531 322.002,324.770 321.956 C 325.010 321.910,324.814 321.872,324.335 321.872 C 323.856 321.872,323.660 321.910,323.899 321.956 M76.580 322.152 C 76.924 322.195,77.533 322.196,77.935 322.154 C 78.336 322.112,78.055 322.077,77.310 322.076 C 76.565 322.075,76.237 322.109,76.580 322.152 M171.016 322.152 C 171.360 322.195,171.970 322.196,172.371 322.154 C 172.773 322.112,172.492 322.077,171.746 322.076 C 171.001 322.075,170.673 322.109,171.016 322.152 M376.338 322.152 C 376.682 322.195,377.291 322.196,377.693 322.154 C 378.094 322.112,377.813 322.077,377.068 322.076 C 376.323 322.075,375.995 322.109,376.338 322.152 M31.114 322.543 C 31.677 322.582,32.548 322.581,33.050 322.542 C 33.552 322.502,33.091 322.470,32.027 322.470 C 30.963 322.471,30.552 322.503,31.114 322.543 M228.598 322.542 C 229.107 322.582,229.891 322.582,230.340 322.541 C 230.789 322.500,230.373 322.468,229.415 322.468 C 228.457 322.469,228.089 322.502,228.598 322.542 " stroke="none" fill="#cad8b8" fill-rule="evenodd"></path><path id="path2" d="M198.936 2.437 C 198.053 2.818,197.070 3.772,196.558 4.741 C 195.978 5.841,195.607 24.357,196.133 25.942 C 197.364 29.647,202.556 30.001,204.439 26.509 L 205.007 25.455 205.169 15.815 C 205.278 9.348,205.267 5.932,205.134 5.439 C 204.456 2.921,201.324 1.404,198.936 2.437 M138.532 17.549 C 136.444 17.887,134.796 20.039,134.918 22.269 C 134.989 23.581,143.248 39.120,144.719 40.712 C 147.453 43.669,152.395 41.638,152.395 37.558 L 152.395 36.091 147.750 27.776 C 141.952 17.395,141.638 17.047,138.532 17.549 M260.571 19.525 C 258.620 20.025,258.341 20.386,253.032 29.297 C 247.921 37.877,247.895 37.928,247.897 39.229 C 247.906 43.514,253.672 45.370,256.071 41.860 C 257.194 40.217,265.648 25.969,265.859 25.364 C 266.957 22.216,263.777 18.705,260.571 19.525 M92.354 61.797 C 89.262 62.918,88.407 67.509,90.922 69.490 C 91.637 70.054,106.519 78.924,107.486 79.363 C 111.870 81.354,115.833 75.265,112.306 71.956 C 111.728 71.414,97.027 62.517,95.694 61.904 C 94.818 61.500,93.306 61.452,92.354 61.797 M304.457 64.953 C 303.941 65.066,287.921 73.959,287.054 74.614 C 283.457 77.331,286.668 83.618,291.050 82.438 C 292.172 82.136,307.927 73.415,308.686 72.676 C 311.956 69.492,308.934 63.972,304.457 64.953 M200.871 110.183 C 193.480 111.798,190.801 121.931,196.307 127.450 C 203.052 134.212,214.121 129.691,214.121 120.174 C 214.122 113.128,208.117 108.600,200.871 110.183 M154.775 125.012 C 148.134 152.814,155.542 176.053,174.542 187.028 C 183.943 192.459,188.853 201.365,188.869 213.014 L 188.873 215.578 198.150 215.578 C 205.040 215.578,207.464 215.520,207.568 215.351 C 208.291 214.181,207.753 204.884,206.736 200.968 C 203.982 190.364,195.076 179.727,184.228 174.086 C 168.405 165.857,157.469 146.610,155.631 123.754 L 155.491 122.013 154.775 125.012 M227.092 130.539 C 216.817 131.933,206.502 136.910,197.326 144.901 C 193.935 147.854,190.726 151.041,190.885 151.298 C 191.028 151.530,197.644 157.117,198.105 157.395 C 198.240 157.476,198.978 157.136,199.847 156.593 C 208.379 151.255,218.818 146.748,228.400 144.264 C 231.718 143.404,233.109 143.157,231.447 143.724 C 221.827 147.002,212.769 151.388,203.241 157.382 C 201.725 158.336,200.484 159.178,200.484 159.253 C 200.484 159.508,208.289 165.611,212.837 168.911 L 215.775 171.044 217.176 170.662 C 232.980 166.360,247.111 154.783,256.047 138.820 C 256.779 137.512,257.378 136.390,257.378 136.327 C 257.378 135.944,251.682 133.643,247.896 132.496 C 241.281 130.493,233.103 129.724,227.092 130.539 M28.525 263.200 C 12.674 264.616,2.060 276.568,2.076 292.985 C 2.093 310.912,13.798 322.421,31.989 322.396 C 40.186 322.385,47.418 319.803,52.696 315.004 L 53.821 313.982 50.159 310.333 L 46.496 306.684 45.261 307.686 C 36.370 314.898,22.268 313.621,16.133 305.050 C 11.457 298.518,11.377 288.082,15.950 281.204 C 22.003 272.098,36.420 270.550,45.273 278.055 L 45.940 278.621 49.490 275.208 L 53.039 271.795 51.737 270.572 C 45.858 265.050,37.506 262.398,28.525 263.200 M341.520 264.217 C 338.315 265.120,336.651 268.575,337.799 271.943 C 339.498 276.929,347.355 276.652,348.837 271.554 C 350.169 266.972,346.126 262.918,341.520 264.217 M184.809 275.278 C 184.809 281.292,184.744 286.209,184.664 286.205 C 184.584 286.201,184.283 285.857,183.995 285.440 C 179.940 279.575,167.567 278.398,159.855 283.145 C 150.181 289.097,148.024 305.483,155.666 314.951 C 162.265 323.127,176.079 324.537,182.922 317.734 C 183.960 316.702,184.809 315.961,184.809 316.088 C 184.809 316.215,184.939 317.360,185.098 318.633 C 185.256 319.907,185.387 321.014,185.388 321.093 C 185.389 321.173,187.479 321.239,190.034 321.239 L 194.678 321.239 194.678 292.791 L 194.678 264.344 189.744 264.344 L 184.809 264.344 184.809 275.278 M74.988 280.348 C 59.900 281.719,51.592 298.123,59.016 311.886 C 66.636 326.013,89.348 325.306,96.081 310.732 C 103.233 295.254,91.823 278.819,74.988 280.348 M374.069 280.416 C 363.113 281.772,355.844 290.680,356.325 302.163 C 356.832 314.290,365.003 321.956,377.358 321.898 C 389.698 321.840,397.923 313.575,397.944 301.209 C 397.967 287.940,387.428 278.762,374.069 280.416 M125.593 280.525 C 122.119 280.949,118.846 282.487,115.605 285.219 L 114.228 286.379 113.996 284.312 C 113.867 283.175,113.715 281.962,113.657 281.616 L 113.552 280.987 109.122 280.987 L 104.693 280.987 104.693 301.113 L 104.693 321.239 109.619 321.239 L 114.545 321.239 114.603 309.773 L 114.662 298.307 115.188 296.759 C 118.585 286.772,132.083 287.047,134.203 297.146 C 134.435 298.248,134.488 300.621,134.491 309.869 L 134.494 321.239 139.543 321.239 L 144.592 321.239 144.501 309.095 C 144.394 294.774,144.285 293.848,142.219 289.598 C 139.224 283.439,132.368 279.697,125.593 280.525 M338.268 301.113 L 338.268 321.239 343.203 321.239 L 348.137 321.239 348.137 301.113 L 348.137 280.987 343.203 280.987 L 338.268 280.987 338.268 301.113 M79.897 289.589 C 91.029 292.552,90.776 310.572,79.572 312.736 C 71.923 314.214,66.074 308.751,66.426 300.458 C 66.752 292.765,72.973 287.746,79.897 289.589 M176.217 289.983 C 186.704 293.485,186.690 308.849,176.197 312.269 C 167.508 315.102,159.629 307.847,161.288 298.541 C 162.512 291.676,169.423 287.714,176.217 289.983 M379.738 289.596 C 387.833 291.705,390.864 303.263,384.986 309.612 C 380.032 314.962,370.756 313.715,367.608 307.275 C 362.943 297.735,370.227 287.119,379.738 289.596 M322.584 310.460 C 315.788 312.385,317.732 322.340,324.793 321.773 C 331.938 321.200,331.835 310.823,324.679 310.299 C 323.986 310.248,323.085 310.317,322.584 310.460 " stroke="none" fill="#8ccc3c" fill-rule="evenodd"></path><path id="path3" d="M196.613 27.153 C 196.613 27.186,196.896 27.469,197.242 27.782 L 197.871 28.350 197.303 27.721 C 196.773 27.135,196.613 27.003,196.613 27.153 M195.646 127.008 C 195.646 127.041,195.929 127.324,196.275 127.637 L 196.904 128.205 196.335 127.576 C 195.806 126.990,195.646 126.858,195.646 127.008 M194.956 146.928 L 194.388 147.557 195.017 146.988 C 195.363 146.676,195.646 146.393,195.646 146.360 C 195.646 146.210,195.486 146.342,194.956 146.928 M244.116 154.669 L 242.961 155.878 244.170 154.723 C 244.836 154.088,245.380 153.543,245.380 153.514 C 245.380 153.371,245.189 153.545,244.116 154.669 M166.038 180.648 C 166.938 181.553,167.718 182.293,167.771 182.293 C 167.824 182.293,167.131 181.553,166.231 180.648 C 165.331 179.744,164.551 179.003,164.498 179.003 C 164.445 179.003,165.138 179.744,166.038 180.648 M196.033 182.970 C 196.933 183.875,197.713 184.615,197.766 184.615 C 197.819 184.615,197.126 183.875,196.226 182.970 C 195.326 182.066,194.547 181.326,194.493 181.326 C 194.440 181.326,195.133 182.066,196.033 182.970 M51.863 270.598 C 51.863 270.631,52.146 270.914,52.492 271.226 L 53.120 271.795 52.552 271.166 C 52.022 270.580,51.863 270.448,51.863 270.598 M49.438 275.230 L 48.089 276.633 49.492 275.283 C 50.795 274.030,50.983 273.827,50.841 273.827 C 50.812 273.827,50.181 274.458,49.438 275.230 M62.208 286.067 L 61.248 287.083 62.264 286.122 C 63.208 285.230,63.369 285.051,63.224 285.051 C 63.194 285.051,62.737 285.508,62.208 286.067 M92.106 286.067 C 92.581 286.572,92.994 286.986,93.025 286.986 C 93.171 286.986,93.017 286.812,92.163 286.010 L 91.243 285.148 92.106 286.067 M180.543 292.646 C 181.345 293.501,181.519 293.654,181.519 293.509 C 181.519 293.478,181.105 293.064,180.600 292.590 L 179.681 291.727 180.543 292.646 M164.187 292.646 L 163.619 293.275 164.248 292.707 C 164.834 292.177,164.966 292.017,164.816 292.017 C 164.783 292.017,164.500 292.300,164.187 292.646 M45.755 307.160 L 45.186 307.789 45.820 307.216 L 46.453 306.643 48.819 308.958 L 51.185 311.272 48.866 308.902 C 46.213 306.190,46.491 306.346,45.755 307.160 M164.393 309.627 C 164.809 310.053,165.192 310.402,165.245 310.402 C 165.299 310.402,165.002 310.053,164.586 309.627 C 164.171 309.202,163.787 308.853,163.734 308.853 C 163.681 308.853,163.977 309.202,164.393 309.627 M84.750 309.966 L 84.083 310.692 84.809 310.025 C 85.484 309.404,85.624 309.240,85.476 309.240 C 85.443 309.240,85.117 309.567,84.750 309.966 M369.521 310.015 C 369.937 310.440,370.320 310.789,370.374 310.789 C 370.427 310.789,370.130 310.440,369.715 310.015 C 369.299 309.589,368.915 309.240,368.862 309.240 C 368.809 309.240,369.105 309.589,369.521 310.015 M62.119 316.304 C 62.480 316.676,62.819 316.981,62.872 316.981 C 62.925 316.981,62.674 316.676,62.313 316.304 C 61.951 315.931,61.613 315.627,61.559 315.627 C 61.506 315.627,61.758 315.931,62.119 316.304 M182.874 317.852 C 182.404 318.331,182.063 318.723,182.116 318.723 C 182.169 318.723,182.597 318.331,183.067 317.852 C 183.537 317.373,183.878 316.981,183.825 316.981 C 183.772 316.981,183.344 317.373,182.874 317.852 " stroke="none" fill="#acd46c" fill-rule="evenodd"></path><path id="path4" d="M255.056 70.150 C 255.956 71.055,256.736 71.795,256.789 71.795 C 256.842 71.795,256.149 71.055,255.249 70.150 C 254.349 69.245,253.569 68.505,253.516 68.505 C 253.463 68.505,254.156 69.245,255.056 70.150 M150.933 86.067 L 150.266 86.792 150.992 86.126 C 151.667 85.505,151.806 85.341,151.659 85.341 C 151.626 85.341,151.300 85.668,150.933 86.067 M248.855 87.905 C 249.657 88.760,249.831 88.913,249.831 88.768 C 249.831 88.737,249.417 88.323,248.911 87.849 L 247.992 86.986 248.855 87.905 M169.606 105.322 L 169.037 105.951 169.666 105.382 C 170.012 105.070,170.295 104.787,170.295 104.753 C 170.295 104.604,170.135 104.735,169.606 105.322 M181.132 149.879 C 181.493 150.252,181.832 150.556,181.885 150.556 C 181.939 150.556,181.687 150.252,181.326 149.879 C 180.965 149.507,180.626 149.202,180.572 149.202 C 180.519 149.202,180.771 149.507,181.132 149.879 M177.842 163.038 C 178.203 163.411,178.542 163.716,178.596 163.716 C 178.649 163.716,178.397 163.411,178.036 163.038 C 177.675 162.666,177.336 162.361,177.283 162.361 C 177.229 162.361,177.481 162.666,177.842 163.038 M181.132 166.098 C 181.132 166.132,181.415 166.415,181.761 166.727 L 182.390 167.296 181.822 166.667 C 181.292 166.080,181.132 165.949,181.132 166.098 M257.664 176.923 L 256.120 178.520 257.716 176.976 C 259.199 175.542,259.401 175.327,259.260 175.327 C 259.231 175.327,258.513 176.045,257.664 176.923 M183.648 227.443 C 183.648 227.477,183.931 227.760,184.277 228.072 L 184.906 228.641 184.337 228.012 C 183.807 227.425,183.648 227.294,183.648 227.443 M239.078 309.095 L 238.510 309.724 239.139 309.156 C 239.725 308.626,239.857 308.466,239.707 308.466 C 239.674 308.466,239.391 308.749,239.078 309.095 M210.740 315.530 C 211.101 315.902,211.440 316.207,211.493 316.207 C 211.547 316.207,211.295 315.902,210.934 315.530 C 210.573 315.157,210.234 314.852,210.180 314.852 C 210.127 314.852,210.379 315.157,210.740 315.530 M247.211 315.868 L 246.251 316.884 247.267 315.924 C 248.211 315.032,248.371 314.852,248.227 314.852 C 248.196 314.852,247.739 315.310,247.211 315.868 " stroke="none" fill="#8c8c8c" fill-rule="evenodd"></path></g></svg>