<svg id="svg" version="1.1" xmlns="http://www.w3.org/2000/svg" xmlns:xlink="http://www.w3.org/1999/xlink" width="400" height="419.29555895865235" viewBox="0, 0, 400,419.29555895865235"><g id="svgg"><path id="path0" d="M197.243 12.126 C 195.847 12.730,194.290 14.239,193.481 15.773 C 192.562 17.515,191.975 46.819,192.808 49.328 C 194.756 55.191,202.973 55.752,205.953 50.226 L 206.852 48.558 207.109 33.299 C 207.282 23.064,207.263 17.658,207.053 16.878 C 205.980 12.892,201.024 10.491,197.243 12.126 M101.643 36.044 C 98.338 36.578,95.729 39.985,95.922 43.515 C 96.036 45.592,109.106 70.185,111.436 72.704 C 115.762 77.384,123.583 74.170,123.583 67.712 L 123.583 65.391 116.233 52.231 C 107.055 35.801,106.558 35.250,101.643 36.044 M294.793 39.172 C 291.705 39.962,291.264 40.534,282.862 54.638 C 274.772 68.217,274.731 68.298,274.735 70.358 C 274.749 77.139,283.875 80.077,287.671 74.522 C 289.449 71.920,302.829 49.371,303.163 48.413 C 304.900 43.430,299.868 37.874,294.793 39.172 M28.557 106.075 C 23.663 107.850,22.310 115.116,26.290 118.251 C 27.422 119.143,50.976 133.182,52.507 133.877 C 59.445 137.029,65.717 127.391,60.135 122.154 C 59.220 121.296,35.953 107.215,33.844 106.244 C 32.457 105.605,30.064 105.529,28.557 106.075 M364.252 111.070 C 363.435 111.249,338.081 125.324,336.708 126.361 C 331.015 130.661,336.097 140.612,343.033 138.744 C 344.808 138.266,369.743 124.463,370.944 123.293 C 376.120 118.254,371.338 109.518,364.252 111.070 M200.306 182.655 C 188.608 185.211,184.370 201.250,193.083 209.985 C 203.759 220.686,221.277 213.531,221.278 198.469 C 221.278 187.316,211.774 180.150,200.306 182.655 M127.350 206.126 C 116.840 250.127,128.564 286.907,158.636 304.279 C 173.514 312.873,181.286 326.969,181.311 345.406 L 181.317 349.464 196.000 349.464 C 206.904 349.464,210.741 349.372,210.906 349.105 C 212.050 347.253,211.199 332.538,209.589 326.340 C 205.231 309.558,191.134 292.723,173.966 283.795 C 148.922 270.771,131.614 240.308,128.706 204.135 L 128.484 201.378 127.350 206.126 M241.807 214.874 C 225.545 217.080,209.219 224.957,194.696 237.604 C 189.329 242.278,184.250 247.322,184.501 247.729 C 184.729 248.096,195.200 256.937,195.929 257.377 C 196.142 257.506,197.311 256.967,198.685 256.108 C 212.190 247.661,228.711 240.527,243.876 236.595 C 249.129 235.234,251.330 234.843,248.698 235.740 C 233.474 240.928,219.137 247.871,204.058 257.357 C 201.658 258.867,199.694 260.200,199.694 260.319 C 199.694 260.722,212.048 270.381,219.245 275.604 L 223.895 278.979 226.113 278.376 C 251.125 271.566,273.491 253.244,287.633 227.980 C 288.792 225.909,289.740 224.134,289.740 224.033 C 289.740 223.427,280.725 219.785,274.732 217.971 C 264.263 214.801,251.320 213.583,241.807 214.874 " stroke="none" fill="#8ccc3c" fill-rule="evenodd"></path><path id="path1" d="M107.198 37.156 C 107.198 37.208,107.645 37.656,108.193 38.151 L 109.188 39.051 108.289 38.055 C 107.450 37.127,107.198 36.919,107.198 37.156 M191.966 81.998 C 192.516 82.067,193.343 82.065,193.803 81.995 C 194.264 81.925,193.813 81.870,192.802 81.871 C 191.792 81.873,191.415 81.930,191.966 81.998 M200.848 81.998 C 201.398 82.067,202.225 82.065,202.685 81.995 C 203.146 81.925,202.695 81.870,201.685 81.871 C 200.674 81.873,200.297 81.930,200.848 81.998 M206.815 82.294 C 207.109 82.371,207.592 82.371,207.887 82.294 C 208.181 82.217,207.940 82.154,207.351 82.154 C 206.761 82.154,206.520 82.217,206.815 82.294 M281.776 114.950 C 281.776 115.003,282.224 115.451,282.772 115.946 L 283.767 116.845 282.868 115.850 C 282.029 114.922,281.776 114.714,281.776 114.950 M108.264 119.219 L 104.900 122.665 108.346 119.301 C 110.241 117.451,111.792 115.900,111.792 115.855 C 111.792 115.634,111.389 116.019,108.264 119.219 M191.348 117.215 C 191.727 117.288,192.347 117.288,192.726 117.215 C 193.105 117.142,192.795 117.082,192.037 117.082 C 191.279 117.082,190.969 117.142,191.348 117.215 M202.067 117.215 C 202.446 117.288,203.067 117.288,203.446 117.215 C 203.825 117.142,203.515 117.082,202.757 117.082 C 201.998 117.082,201.688 117.142,202.067 117.215 M185.375 117.524 C 185.838 117.594,186.596 117.594,187.060 117.524 C 187.523 117.454,187.144 117.397,186.217 117.397 C 185.291 117.397,184.912 117.454,185.375 117.524 M207.734 117.524 C 208.197 117.594,208.955 117.594,209.418 117.524 C 209.881 117.454,209.502 117.397,208.576 117.397 C 207.649 117.397,207.270 117.454,207.734 117.524 M289.740 122.971 C 290.311 123.560,290.848 124.043,290.932 124.043 C 291.016 124.043,290.617 123.560,290.046 122.971 C 289.474 122.381,288.938 121.899,288.854 121.899 C 288.770 121.899,289.168 122.381,289.740 122.971 M273.354 144.870 C 274.012 145.544,274.619 146.095,274.703 146.095 C 274.787 146.095,274.318 145.544,273.660 144.870 C 273.002 144.196,272.395 143.645,272.311 143.645 C 272.226 143.645,272.696 144.196,273.354 144.870 M117.917 147.779 C 116.662 149.043,115.704 150.077,115.789 150.077 C 115.873 150.077,116.969 149.043,118.224 147.779 C 119.479 146.516,120.436 145.482,120.352 145.482 C 120.268 145.482,119.172 146.516,117.917 147.779 M278.701 150.153 C 279.452 150.953,280.106 151.608,280.156 151.608 C 280.386 151.608,280.142 151.333,278.790 150.064 L 277.335 148.698 278.701 150.153 M167.221 170.521 L 164.625 173.201 167.305 170.604 C 169.794 168.192,170.124 167.841,169.901 167.841 C 169.856 167.841,168.650 169.047,167.221 170.521 M152.661 173.124 L 151.761 174.119 152.757 173.220 C 153.684 172.381,153.893 172.129,153.656 172.129 C 153.603 172.129,153.155 172.577,152.661 173.124 M71.740 195.712 C 71.740 196.302,71.803 196.543,71.880 196.248 C 71.957 195.953,71.957 195.471,71.880 195.176 C 71.803 194.881,71.740 195.123,71.740 195.712 M322.895 198.315 C 322.898 198.989,322.961 199.229,323.034 198.848 C 323.108 198.467,323.105 197.916,323.028 197.623 C 322.952 197.330,322.892 197.642,322.895 198.315 M71.440 199.847 C 71.444 200.521,71.506 200.760,71.580 200.379 C 71.653 199.998,71.650 199.447,71.573 199.154 C 71.497 198.861,71.437 199.173,71.440 199.847 M323.219 203.216 C 323.221 204.227,323.278 204.603,323.346 204.053 C 323.414 203.502,323.413 202.675,323.343 202.215 C 323.273 201.755,323.217 202.205,323.219 203.216 M151.691 204.288 C 151.691 205.046,151.751 205.356,151.824 204.977 C 151.897 204.598,151.897 203.978,151.824 203.599 C 151.751 203.220,151.691 203.530,151.691 204.288 M71.177 207.657 C 71.177 209.931,71.225 210.861,71.284 209.724 C 71.343 208.587,71.343 206.727,71.284 205.590 C 71.225 204.453,71.177 205.383,71.177 207.657 M136.406 209.954 C 136.407 211.639,136.458 212.289,136.520 211.399 C 136.582 210.509,136.582 209.130,136.519 208.336 C 136.456 207.541,136.405 208.270,136.406 209.954 M323.219 212.098 C 323.221 213.109,323.278 213.485,323.346 212.935 C 323.414 212.384,323.413 211.557,323.343 211.097 C 323.273 210.637,323.217 211.087,323.219 212.098 M71.434 215.314 C 71.434 215.904,71.497 216.145,71.574 215.850 C 71.651 215.555,71.651 215.073,71.574 214.778 C 71.497 214.483,71.434 214.724,71.434 215.314 M307.575 215.620 C 307.575 216.210,307.638 216.451,307.715 216.156 C 307.792 215.861,307.792 215.379,307.715 215.084 C 307.638 214.789,307.575 215.031,307.575 215.620 M86.760 217.152 C 86.760 217.910,86.820 218.220,86.893 217.841 C 86.966 217.462,86.966 216.842,86.893 216.462 C 86.820 216.083,86.760 216.394,86.760 217.152 M307.935 224.196 C 307.935 226.975,307.981 228.113,308.038 226.723 C 308.095 225.333,308.095 223.059,308.038 221.669 C 307.981 220.279,307.935 221.417,307.935 224.196 M86.760 231.240 C 86.760 231.998,86.820 232.309,86.893 231.930 C 86.966 231.551,86.966 230.930,86.893 230.551 C 86.820 230.172,86.760 230.482,86.760 231.240 M307.581 232.925 C 307.584 233.599,307.647 233.838,307.720 233.457 C 307.794 233.076,307.791 232.525,307.714 232.232 C 307.638 231.939,307.578 232.251,307.581 232.925 M186.824 244.640 L 183.920 247.626 186.907 244.723 C 189.680 242.026,190.032 241.654,189.810 241.654 C 189.765 241.654,188.421 242.998,186.824 244.640 M271.653 250.153 L 270.597 251.302 271.746 250.246 C 272.815 249.264,273.035 249.005,272.801 249.005 C 272.750 249.005,272.233 249.521,271.653 250.153 M265.833 255.972 L 264.778 257.121 265.926 256.065 C 266.558 255.485,267.075 254.968,267.075 254.917 C 267.075 254.683,266.816 254.903,265.833 255.972 M160.949 263.400 C 161.950 264.410,162.837 265.237,162.921 265.237 C 163.005 265.237,162.256 264.410,161.256 263.400 C 160.256 262.389,159.368 261.562,159.284 261.562 C 159.200 261.562,159.949 262.389,160.949 263.400 M166.769 269.219 C 167.769 270.230,168.656 271.057,168.740 271.057 C 168.825 271.057,168.075 270.230,167.075 269.219 C 166.075 268.208,165.188 267.381,165.103 267.381 C 165.019 267.381,165.769 268.208,166.769 269.219 M156.968 270.750 C 158.477 272.266,159.780 273.507,159.865 273.507 C 159.949 273.507,158.783 272.266,157.274 270.750 C 155.765 269.234,154.461 267.994,154.377 267.994 C 154.293 267.994,155.459 269.234,156.968 270.750 M104.135 288.361 C 105.728 289.962,107.101 291.271,107.185 291.271 C 107.270 291.271,106.035 289.962,104.441 288.361 C 102.847 286.761,101.475 285.452,101.390 285.452 C 101.306 285.452,102.541 286.761,104.135 288.361 M198.622 295.559 C 199.792 296.738,200.818 297.703,200.902 297.703 C 200.987 297.703,200.098 296.738,198.928 295.559 C 197.758 294.380,196.732 293.415,196.647 293.415 C 196.563 293.415,197.452 294.380,198.622 295.559 M110.831 294.425 C 111.061 294.708,111.359 294.871,111.494 294.788 C 111.629 294.705,111.810 294.778,111.896 294.952 C 111.982 295.126,112.016 295.092,111.973 294.877 C 111.929 294.663,111.767 294.485,111.613 294.482 C 111.459 294.480,111.126 294.350,110.873 294.194 C 110.477 293.949,110.471 293.981,110.831 294.425 M168.147 311.639 C 169.062 312.565,169.880 313.323,169.964 313.323 C 170.048 313.323,169.368 312.565,168.453 311.639 C 167.538 310.712,166.721 309.954,166.637 309.954 C 166.552 309.954,167.232 310.712,168.147 311.639 M246.340 334.456 C 246.340 335.383,246.397 335.762,246.467 335.299 C 246.538 334.835,246.538 334.077,246.467 333.614 C 246.397 333.151,246.340 333.530,246.340 334.456 M246.343 342.266 C 246.345 343.277,246.402 343.654,246.470 343.103 C 246.538 342.553,246.537 341.726,246.467 341.266 C 246.397 340.805,246.341 341.256,246.343 342.266 M217.553 345.636 C 217.555 346.646,217.612 347.023,217.680 346.472 C 217.748 345.922,217.747 345.095,217.677 344.635 C 217.607 344.174,217.551 344.625,217.553 345.636 M195.918 354.594 C 205.549 354.639,221.399 354.639,231.140 354.594 C 240.881 354.549,233.002 354.513,213.629 354.513 C 194.257 354.513,186.287 354.549,195.918 354.594 M204.080 397.779 C 209.441 397.826,218.124 397.826,223.376 397.779 C 228.628 397.732,224.242 397.694,213.629 397.694 C 203.017 397.694,198.720 397.732,204.080 397.779 M190.276 402.603 C 190.280 403.277,190.342 403.517,190.416 403.136 C 190.489 402.755,190.486 402.204,190.410 401.911 C 190.333 401.618,190.273 401.930,190.276 402.603 " stroke="none" fill="#ccd0c6" fill-rule="evenodd"></path><path id="path2" d="M190.658 82.103 C 142.815 84.926,99.802 115.523,81.183 159.977 C 63.904 201.231,69.790 245.594,97.133 280.195 C 100.425 284.359,114.340 298.257,111.597 294.640 C 90.123 266.322,82.176 234.422,88.669 202.603 C 98.513 154.369,138.597 119.673,187.136 117.371 C 217.964 115.910,239.923 121.010,260.096 134.318 C 312.217 168.701,323.623 240.046,285.240 291.600 C 282.000 295.952,283.143 295.142,290.219 288.071 C 330.987 247.335,334.184 180.929,297.704 132.620 C 272.471 99.205,231.168 79.713,190.658 82.103 M187.902 154.180 C 160.907 163.175,144.198 177.040,138.778 194.946 C 134.264 209.855,137.043 228.268,146.300 244.802 C 152.587 256.031,171.799 275.069,190.325 288.429 C 201.649 296.595,208.645 306.046,212.947 318.992 C 215.859 327.754,217.749 338.846,217.761 347.243 L 217.764 349.464 231.667 349.464 L 245.569 349.464 245.746 348.761 C 246.741 344.794,246.509 332.234,245.315 325.533 C 242.793 311.369,234.946 296.306,227.560 291.448 C 208.067 278.628,172.021 249.649,166.795 242.595 C 140.853 207.584,149.281 174.979,189.573 154.469 C 191.672 153.401,193.257 152.531,193.096 152.537 C 192.934 152.543,190.597 153.282,187.902 154.180 M176.558 355.395 C 169.639 358.617,170.259 369.129,177.492 371.226 C 180.187 372.008,248.008 371.876,250.059 371.086 C 256.968 368.421,257.407 358.765,250.768 355.457 L 249.191 354.671 213.646 354.674 L 178.101 354.677 176.558 355.395 M184.731 378.911 C 178.465 380.715,179.021 390.553,185.474 392.050 C 187.598 392.542,240.383 392.420,242.049 391.918 C 248.075 390.105,248.735 381.935,243.068 379.296 L 241.501 378.566 213.629 378.591 C 196.714 378.606,185.354 378.732,184.731 378.911 M193.022 398.365 C 189.831 399.938,189.686 404.288,192.748 406.557 C 194.099 407.557,233.152 407.566,234.492 406.566 C 237.498 404.321,237.414 400.660,234.306 398.545 L 233.294 397.856 213.661 397.863 C 196.203 397.869,193.916 397.925,193.022 398.365 " stroke="none" fill="#64646c" fill-rule="evenodd"></path><path id="path3" d="M286.064 119.296 C 287.489 120.727,288.723 121.899,288.807 121.899 C 288.892 121.899,287.795 120.727,286.371 119.296 C 284.946 117.864,283.712 116.692,283.628 116.692 C 283.543 116.692,284.640 117.864,286.064 119.296 M121.270 144.487 L 120.214 145.636 121.363 144.580 C 121.995 144.000,122.511 143.483,122.511 143.431 C 122.511 143.198,122.252 143.418,121.270 144.487 M276.251 147.397 C 277.002 148.197,277.656 148.851,277.705 148.851 C 277.935 148.851,277.692 148.576,276.340 147.307 L 274.885 145.942 276.251 147.397 M150.823 174.962 L 149.923 175.957 150.919 175.058 C 151.847 174.219,152.055 173.966,151.818 173.966 C 151.766 173.966,151.318 174.414,150.823 174.962 M169.066 245.482 C 169.637 246.072,170.174 246.554,170.258 246.554 C 170.342 246.554,169.944 246.072,169.372 245.482 C 168.801 244.893,168.264 244.410,168.180 244.410 C 168.096 244.410,168.494 244.893,169.066 245.482 M163.859 266.309 C 164.431 266.899,164.967 267.381,165.051 267.381 C 165.135 267.381,164.737 266.899,164.165 266.309 C 163.594 265.720,163.057 265.237,162.973 265.237 C 162.889 265.237,163.288 265.720,163.859 266.309 M169.066 271.152 C 169.066 271.205,169.514 271.653,170.061 272.148 L 171.057 273.047 170.157 272.052 C 169.319 271.124,169.066 270.916,169.066 271.152 M290.192 288.285 L 287.749 290.812 290.276 288.369 C 292.622 286.100,292.942 285.758,292.719 285.758 C 292.673 285.758,291.536 286.895,290.192 288.285 M173.047 368.243 C 173.047 368.296,173.495 368.743,174.043 369.238 L 175.038 370.138 174.139 369.142 C 173.300 368.215,173.047 368.006,173.047 368.243 " stroke="none" fill="#8c8c8c" fill-rule="evenodd"></path><path id="path4" d="M199.311 11.548 C 199.690 11.621,200.310 11.621,200.689 11.548 C 201.068 11.475,200.758 11.416,200.000 11.416 C 199.242 11.416,198.932 11.475,199.311 11.548 M194.621 13.859 L 193.721 14.855 194.717 13.955 C 195.264 13.460,195.712 13.012,195.712 12.960 C 195.712 12.723,195.459 12.931,194.621 13.859 M207.168 31.700 C 207.169 34.395,207.216 35.457,207.273 34.059 C 207.329 32.661,207.329 30.456,207.272 29.159 C 207.215 27.861,207.168 29.005,207.168 31.700 M192.467 32.619 C 192.467 35.314,192.514 36.376,192.571 34.978 C 192.628 33.580,192.628 31.375,192.570 30.077 C 192.513 28.780,192.467 29.923,192.467 32.619 M291.099 41.118 L 290.199 42.113 291.194 41.214 C 291.742 40.719,292.190 40.271,292.190 40.218 C 292.190 39.982,291.937 40.190,291.099 41.118 M95.642 43.185 C 95.642 43.943,95.702 44.253,95.775 43.874 C 95.848 43.495,95.848 42.875,95.775 42.496 C 95.702 42.117,95.642 42.427,95.642 43.185 M206.815 47.320 C 206.819 47.994,206.881 48.233,206.955 47.852 C 207.028 47.471,207.025 46.920,206.949 46.627 C 206.872 46.335,206.812 46.646,206.815 47.320 M193.568 51.244 C 193.568 51.297,194.016 51.745,194.564 52.240 L 195.559 53.139 194.659 52.144 C 193.821 51.216,193.568 51.008,193.568 51.244 M123.820 67.688 C 123.820 68.446,123.880 68.756,123.953 68.377 C 124.026 67.998,124.026 67.377,123.953 66.998 C 123.880 66.619,123.820 66.930,123.820 67.688 M30.398 105.571 C 30.693 105.648,31.175 105.648,31.470 105.571 C 31.765 105.494,31.524 105.431,30.934 105.431 C 30.345 105.431,30.103 105.494,30.398 105.571 M204.211 182.146 C 204.590 182.219,205.211 182.219,205.590 182.146 C 205.969 182.073,205.658 182.013,204.900 182.013 C 204.142 182.013,203.832 182.073,204.211 182.146 M193.089 186.600 L 192.190 187.596 193.185 186.696 C 193.733 186.201,194.181 185.753,194.181 185.701 C 194.181 185.464,193.928 185.672,193.089 186.600 M128.559 202.680 C 128.740 205.233,128.891 205.361,128.919 202.986 C 128.932 201.849,128.829 200.919,128.688 200.919 C 128.548 200.919,128.490 201.711,128.559 202.680 M129.014 207.963 C 129.014 208.553,129.077 208.794,129.154 208.499 C 129.232 208.204,129.232 207.722,129.154 207.427 C 129.077 207.132,129.014 207.374,129.014 207.963 M192.649 209.954 C 193.221 210.544,193.757 211.026,193.841 211.026 C 193.926 211.026,193.527 210.544,192.956 209.954 C 192.384 209.364,191.848 208.882,191.763 208.882 C 191.679 208.882,192.078 209.364,192.649 209.954 M248.622 214.316 C 249.843 214.374,251.842 214.374,253.063 214.316 C 254.284 214.258,253.285 214.211,250.842 214.211 C 248.400 214.211,247.400 214.258,248.622 214.316 M203.602 215.224 C 203.983 215.298,204.535 215.295,204.827 215.218 C 205.120 215.141,204.809 215.081,204.135 215.085 C 203.461 215.088,203.221 215.151,203.602 215.224 M206.053 215.224 C 206.434 215.298,206.985 215.295,207.278 215.218 C 207.571 215.141,207.259 215.081,206.585 215.085 C 205.911 215.088,205.672 215.151,206.053 215.224 M123.518 229.862 C 123.520 230.704,123.580 231.013,123.650 230.547 C 123.721 230.082,123.719 229.392,123.646 229.016 C 123.573 228.639,123.516 229.020,123.518 229.862 M191.101 240.658 L 190.046 241.807 191.194 240.752 C 191.826 240.171,192.343 239.654,192.343 239.603 C 192.343 239.369,192.084 239.589,191.101 240.658 M123.514 243.492 C 123.514 244.250,123.573 244.560,123.646 244.181 C 123.719 243.802,123.719 243.181,123.646 242.802 C 123.573 242.423,123.514 242.734,123.514 243.492 M268.750 253.063 L 266.922 254.977 268.836 253.149 C 269.889 252.143,270.750 251.282,270.750 251.235 C 270.750 251.008,270.448 251.285,268.750 253.063 M145.329 294.334 C 146.838 295.850,148.142 297.090,148.226 297.090 C 148.310 297.090,147.145 295.850,145.636 294.334 C 144.126 292.818,142.823 291.577,142.739 291.577 C 142.654 291.577,143.820 292.818,145.329 294.334 M192.496 297.703 C 194.005 299.219,195.309 300.459,195.393 300.459 C 195.477 300.459,194.312 299.219,192.802 297.703 C 191.293 296.187,189.990 294.946,189.906 294.946 C 189.821 294.946,190.987 296.187,192.496 297.703 M211.449 340.735 C 211.450 342.757,211.499 343.544,211.559 342.484 C 211.619 341.425,211.619 339.771,211.558 338.809 C 211.498 337.847,211.449 338.714,211.449 340.735 M181.088 341.654 C 181.091 342.328,181.154 342.567,181.227 342.186 C 181.301 341.805,181.298 341.254,181.221 340.961 C 181.144 340.668,181.085 340.980,181.088 341.654 " stroke="none" fill="#c4e49c" fill-rule="evenodd"></path></g></svg>